<svg xmlns="http://www.w3.org/2000/svg" width="161.621" height="21.971" viewBox="0 0 161.621 21.971">
  <g id="LOGO" transform="translate(0)" style="mix-blend-mode: normal;isolation: isolate">
    <g id="LOGO-font" transform="translate(41.356 3.938)">
      <path id="路径_153" data-name="路径 153" d="M292.85,834.186v2.094H280.755V822.833h2.632v11.353Z" transform="translate(-280.755 -822.833)" fill="#003446"/>
      <path id="路径_154" data-name="路径 154" d="M372.883,836.28H370.25V822.833h2.633Z" transform="translate(-354.492 -822.833)" fill="#003446"/>
      <path id="路径_155" data-name="路径 155" d="M429.912,822.888v8.769c0,3.6-3.975,4.812-7.348,4.812-3.373-.019-7.348-1.21-7.348-4.812v-8.769h2.633v8.423c0,2.026,2.3,3.064,4.715,3.064s4.715-1.037,4.715-3.064v-8.423Z" transform="translate(-391.54 -822.878)" fill="#003446"/>
      <path id="路径_156" data-name="路径 156" d="M568.607,824.927v3.63h7.686v2h-7.686v5.724h-2.632V822.833H577.8v2.094Z" transform="translate(-515.753 -822.833)" fill="#003446"/>
      <path id="路径_157" data-name="路径 157" d="M667.627,822.888v8.769c0,3.6-3.975,4.812-7.348,4.812-3.372-.019-7.348-1.21-7.348-4.812v-8.769h2.633v8.423c0,2.026,2.3,3.064,4.715,3.064s4.716-1.037,4.716-3.064v-8.423Z" transform="translate(-587.398 -822.878)" fill="#003446"/>
      <path id="路径_158" data-name="路径 158" d="M778.741,822.833V836.28H775.75l-9.642-10.431V836.28h-2.633V822.833h3l9.631,10.469V822.833Z" transform="translate(-678.477 -822.833)" fill="#003446"/>
      <path id="路径_159" data-name="路径 159" d="M896.694,829.556c0,4.188-3.734,6.723-8.052,6.723h-6.281V822.833h6.281C892.961,822.833,896.694,825.369,896.694,829.556Zm-2.182,0c0-2.977-2.721-4.629-5.87-4.629h-4.008v9.259h4.008C891.792,834.186,894.512,832.544,894.512,829.556Z" transform="translate(-776.43 -822.833)" fill="#003446"/>
    </g>
    <g id="LOGO-icon" transform="translate(0)">
      <rect id="矩形_193" data-name="矩形 193" width="15.201" height="0.88" transform="translate(9.161 11.267)" fill="#003446"/>
      <path id="路径_160" data-name="路径 160" d="M60.986,823.868a10.017,10.017,0,0,1-10.316-9.641V802.957h.88v11.269a9.461,9.461,0,0,0,18.871,0V802.957h.88v11.269A10.017,10.017,0,0,1,60.986,823.868Z" transform="translate(-50.67 -802.519)" fill="#003446"/>
      <path id="路径_161" data-name="路径 161" d="M109.643,821.817h-9.611V800.468h9.611a13.89,13.89,0,0,1,7.169,2.487,9.8,9.8,0,0,1,4.57,8.186h0C121.382,818.746,113.1,821.817,109.643,821.817Zm-8.731-.88h8.731a13.145,13.145,0,0,0,6.67-2.332,8.742,8.742,0,0,0,0-14.925,13.144,13.144,0,0,0-6.67-2.331h-8.731Z" transform="translate(-91.341 -800.468)" fill="#003446"/>
      <path id="路径_162" data-name="路径 162" d="M122.547,822.439l-20.921-20.92a.616.616,0,0,1,.436-1.052h20.485ZM102.7,801.348l18.967,18.966V801.348Z" transform="translate(-92.504 -800.468)" fill="#003446"/>
      <path id="路径_163" data-name="路径 163" d="M68.973,824.429H50.67V803.639h.88v19.91H68.973Z" transform="translate(-50.67 -803.08)" fill="#003446"/>
      <rect id="矩形_194" data-name="矩形 194" width="0.88" height="20.413" transform="translate(8.692 0.44)" fill="#003446"/>
    </g>
  </g>
</svg>
